# xmcd
#
# Track frame offsets:
#	150
#	20657
#	48323
#	73728
#	98959
#	118440
#	152358
#	167760
#	186010
#	212571
#	287826
#	317285
#	341168
#
# Disc length: 4780 seconds
#
# Revision: 0
# Processed by: cddbd v1.5.1PL2 Copyright (c) Steve Scherf et al.
# Submitted via: EasyCDDAExtractor 8.0.2.1
#
DISCID=bb12aa0d
DTITLE=Dio - Elysee Montmartre Paris 05-03-97 
DYEAR=1997
DGENRE=Hard Rock
TTITLE0=Jesus Mary and The Holy Ghost
TTITLE1=Straight Through The Heart
TTITLE2=Don't Talk To Strangers
TTITLE3=Holy Diver
TTITLE4=Drum Solo
TTITLE5=Heaven and Hell
TTITLE6=Double Monday
TTITLE7=Stand Up And Shout
TTITLE8=Hunter Of The Heart
TTITLE9=Mistreated - Catch The Rainbow - Guitar Solo
TTITLE10=The Last In Line
TTITLE11=Rainbow In The Dark
TTITLE12=The Mob Rules
EXTD=
EXTT0=
EXTT1=
EXTT2=
EXTT3=
EXTT4=
EXTT5=
EXTT6=
EXTT7=
EXTT8=
EXTT9=
EXTT10=
EXTT11=
EXTT12=
PLAYORDER=
